<mxfile host="app.diagrams.net" agent="Mozilla/5.0 (Windows NT 10.0; Win64; x64) AppleWebKit/537.36 (KHTML, like Gecko) Chrome/131.0.0.0 Safari/537.36" version="26.0.3">
  <diagram name="Page-1" id="7oG54qnDEi2w9H8_QEab">
    <mxGraphModel dx="1323" dy="1787" grid="1" gridSize="10" guides="1" tooltips="1" connect="1" arrows="1" fold="1" page="1" pageScale="1" pageWidth="850" pageHeight="1100" math="0" shadow="0">
      <root>
        <mxCell id="0" />
        <mxCell id="1" parent="0" />
        <mxCell id="OCgTym71qdyOVRXxtuMu-2" value="Source VPC&lt;div&gt;CIDR&amp;nbsp;&lt;span style=&quot;background-color: transparent; color: light-dark(rgb(135, 145, 150), rgb(106, 115, 119));&quot;&gt;10.0.0.0/16&lt;/span&gt;&lt;/div&gt;" style="sketch=0;outlineConnect=0;gradientColor=none;html=1;whiteSpace=wrap;fontSize=12;fontStyle=0;shape=mxgraph.aws4.group;grIcon=mxgraph.aws4.group_vpc;strokeColor=#879196;fillColor=none;verticalAlign=top;align=left;spacingLeft=30;fontColor=#879196;dashed=0;" vertex="1" parent="1">
          <mxGeometry x="5" y="-110" width="710" height="660" as="geometry" />
        </mxCell>
        <object label="" id="OCgTym71qdyOVRXxtuMu-4">
          <mxCell style="rounded=1;arcSize=10;dashed=0;strokeWidth=2;" vertex="1" parent="1">
            <mxGeometry x="60" y="80" width="230" height="290" as="geometry" />
          </mxCell>
        </object>
        <mxCell id="OCgTym71qdyOVRXxtuMu-5" value="" style="dashed=0;html=1;shape=mxgraph.aws3.permissions;fillColor=#ffe6cc;dashed=0;strokeColor=#d79b00;" vertex="1" parent="1">
          <mxGeometry x="80" y="60" width="30" height="35" as="geometry" />
        </mxCell>
        <object label="" id="OCgTym71qdyOVRXxtuMu-11">
          <mxCell style="rounded=1;arcSize=10;dashed=0;strokeWidth=2;" vertex="1" parent="1">
            <mxGeometry x="425" y="80" width="230" height="290" as="geometry" />
          </mxCell>
        </object>
        <mxCell id="OCgTym71qdyOVRXxtuMu-46" style="edgeStyle=orthogonalEdgeStyle;rounded=0;orthogonalLoop=1;jettySize=auto;html=1;exitX=0.5;exitY=0;exitDx=0;exitDy=0;" edge="1" parent="1" source="OCgTym71qdyOVRXxtuMu-12" target="OCgTym71qdyOVRXxtuMu-44">
          <mxGeometry relative="1" as="geometry">
            <Array as="points">
              <mxPoint x="600" y="370" />
              <mxPoint x="600" y="689" />
            </Array>
          </mxGeometry>
        </mxCell>
        <mxCell id="OCgTym71qdyOVRXxtuMu-12" value="Private Subnet&lt;div&gt;10.0.2.0/24&lt;/div&gt;" style="text;html=1;align=center;verticalAlign=middle;whiteSpace=wrap;rounded=0;" vertex="1" parent="1">
          <mxGeometry x="475" y="370" width="140" height="40" as="geometry" />
        </mxCell>
        <mxCell id="OCgTym71qdyOVRXxtuMu-13" value="" style="dashed=0;html=1;shape=mxgraph.aws3.permissions;fillColor=#ffe6cc;dashed=0;strokeColor=#d79b00;" vertex="1" parent="1">
          <mxGeometry x="445" y="60" width="30" height="35" as="geometry" />
        </mxCell>
        <mxCell id="OCgTym71qdyOVRXxtuMu-15" value="" style="outlineConnect=0;dashed=0;verticalLabelPosition=bottom;verticalAlign=top;align=center;html=1;shape=mxgraph.aws3.ec2;fillColor=#F58534;gradientColor=none;" vertex="1" parent="1">
          <mxGeometry x="130" y="179" width="76.5" height="93" as="geometry" />
        </mxCell>
        <mxCell id="OCgTym71qdyOVRXxtuMu-16" value="Public Subnet&lt;div&gt;10.0.1.0/24&lt;/div&gt;" style="text;html=1;align=center;verticalAlign=middle;whiteSpace=wrap;rounded=0;" vertex="1" parent="1">
          <mxGeometry x="110" y="380" width="140" height="40" as="geometry" />
        </mxCell>
        <mxCell id="OCgTym71qdyOVRXxtuMu-26" style="edgeStyle=orthogonalEdgeStyle;rounded=0;orthogonalLoop=1;jettySize=auto;html=1;exitX=0.5;exitY=0;exitDx=0;exitDy=0;dashed=1;" edge="1" parent="1" source="OCgTym71qdyOVRXxtuMu-17" target="OCgTym71qdyOVRXxtuMu-18">
          <mxGeometry relative="1" as="geometry">
            <Array as="points">
              <mxPoint x="168" y="440" />
              <mxPoint x="540" y="440" />
            </Array>
          </mxGeometry>
        </mxCell>
        <mxCell id="OCgTym71qdyOVRXxtuMu-17" value="Web Server&amp;nbsp;" style="text;html=1;align=center;verticalAlign=middle;whiteSpace=wrap;rounded=0;" vertex="1" parent="1">
          <mxGeometry x="98.25" y="272" width="140" height="40" as="geometry" />
        </mxCell>
        <mxCell id="OCgTym71qdyOVRXxtuMu-18" value="" style="outlineConnect=0;dashed=0;verticalLabelPosition=bottom;verticalAlign=top;align=center;html=1;shape=mxgraph.aws3.ec2;fillColor=#F58534;gradientColor=none;" vertex="1" parent="1">
          <mxGeometry x="501.75" y="150" width="76.5" height="93" as="geometry" />
        </mxCell>
        <mxCell id="OCgTym71qdyOVRXxtuMu-19" value="DB Server" style="text;html=1;align=center;verticalAlign=middle;whiteSpace=wrap;rounded=0;" vertex="1" parent="1">
          <mxGeometry x="470" y="263" width="140" height="40" as="geometry" />
        </mxCell>
        <mxCell id="OCgTym71qdyOVRXxtuMu-25" style="edgeStyle=none;rounded=0;orthogonalLoop=1;jettySize=auto;html=1;exitX=0.5;exitY=1;exitDx=0;exitDy=0;exitPerimeter=0;" edge="1" parent="1" source="OCgTym71qdyOVRXxtuMu-20" target="OCgTym71qdyOVRXxtuMu-23">
          <mxGeometry relative="1" as="geometry" />
        </mxCell>
        <mxCell id="OCgTym71qdyOVRXxtuMu-20" value="" style="outlineConnect=0;dashed=0;verticalLabelPosition=bottom;verticalAlign=top;align=center;html=1;shape=mxgraph.aws3.internet_gateway;fillColor=#F58534;gradientColor=none;" vertex="1" parent="1">
          <mxGeometry x="140.5" y="-150" width="69" height="72" as="geometry" />
        </mxCell>
        <mxCell id="OCgTym71qdyOVRXxtuMu-23" value="" style="outlineConnect=0;dashed=0;verticalLabelPosition=bottom;verticalAlign=top;align=center;html=1;shape=mxgraph.aws3.route_table;fillColor=#F58536;gradientColor=none;" vertex="1" parent="1">
          <mxGeometry x="137.5" y="43" width="75" height="69" as="geometry" />
        </mxCell>
        <mxCell id="OCgTym71qdyOVRXxtuMu-24" value="" style="outlineConnect=0;dashed=0;verticalLabelPosition=bottom;verticalAlign=top;align=center;html=1;shape=mxgraph.aws3.route_table;fillColor=#F58536;gradientColor=none;" vertex="1" parent="1">
          <mxGeometry x="503.25" y="43" width="75" height="69" as="geometry" />
        </mxCell>
        <mxCell id="OCgTym71qdyOVRXxtuMu-27" value="Dest VPC&lt;div&gt;CIDR&amp;nbsp;&lt;span style=&quot;background-color: transparent; color: light-dark(rgb(135, 145, 150), rgb(106, 115, 119));&quot;&gt;20.0.0.0/16&lt;/span&gt;&lt;/div&gt;" style="sketch=0;outlineConnect=0;gradientColor=none;html=1;whiteSpace=wrap;fontSize=12;fontStyle=0;shape=mxgraph.aws4.group;grIcon=mxgraph.aws4.group_vpc;strokeColor=#879196;fillColor=none;verticalAlign=top;align=left;spacingLeft=30;fontColor=#879196;dashed=0;" vertex="1" parent="1">
          <mxGeometry x="840" y="-110" width="710" height="660" as="geometry" />
        </mxCell>
        <object label="" id="OCgTym71qdyOVRXxtuMu-28">
          <mxCell style="rounded=1;arcSize=10;dashed=0;strokeWidth=2;" vertex="1" parent="1">
            <mxGeometry x="895" y="80" width="230" height="290" as="geometry" />
          </mxCell>
        </object>
        <mxCell id="OCgTym71qdyOVRXxtuMu-29" value="" style="dashed=0;html=1;shape=mxgraph.aws3.permissions;fillColor=#ffe6cc;dashed=0;strokeColor=#d79b00;" vertex="1" parent="1">
          <mxGeometry x="915" y="60" width="30" height="35" as="geometry" />
        </mxCell>
        <object label="" id="OCgTym71qdyOVRXxtuMu-30">
          <mxCell style="rounded=1;arcSize=10;dashed=0;strokeWidth=2;" vertex="1" parent="1">
            <mxGeometry x="1260" y="80" width="230" height="290" as="geometry" />
          </mxCell>
        </object>
        <mxCell id="OCgTym71qdyOVRXxtuMu-45" style="edgeStyle=orthogonalEdgeStyle;rounded=0;orthogonalLoop=1;jettySize=auto;html=1;exitX=0.5;exitY=0;exitDx=0;exitDy=0;" edge="1" parent="1" source="OCgTym71qdyOVRXxtuMu-31" target="OCgTym71qdyOVRXxtuMu-44">
          <mxGeometry relative="1" as="geometry">
            <Array as="points">
              <mxPoint x="1420" y="370" />
              <mxPoint x="1420" y="689" />
            </Array>
          </mxGeometry>
        </mxCell>
        <mxCell id="OCgTym71qdyOVRXxtuMu-31" value="Private Subnet&lt;div&gt;20.0.2.0/24&lt;/div&gt;" style="text;html=1;align=center;verticalAlign=middle;whiteSpace=wrap;rounded=0;" vertex="1" parent="1">
          <mxGeometry x="1310" y="370" width="140" height="40" as="geometry" />
        </mxCell>
        <mxCell id="OCgTym71qdyOVRXxtuMu-32" value="" style="dashed=0;html=1;shape=mxgraph.aws3.permissions;fillColor=#ffe6cc;dashed=0;strokeColor=#d79b00;" vertex="1" parent="1">
          <mxGeometry x="1280" y="60" width="30" height="35" as="geometry" />
        </mxCell>
        <mxCell id="OCgTym71qdyOVRXxtuMu-33" value="" style="outlineConnect=0;dashed=0;verticalLabelPosition=bottom;verticalAlign=top;align=center;html=1;shape=mxgraph.aws3.ec2;fillColor=#F58534;gradientColor=none;" vertex="1" parent="1">
          <mxGeometry x="965" y="179" width="76.5" height="93" as="geometry" />
        </mxCell>
        <mxCell id="OCgTym71qdyOVRXxtuMu-34" value="Public Subnet&lt;div&gt;20.0.1.0/24&lt;/div&gt;" style="text;html=1;align=center;verticalAlign=middle;whiteSpace=wrap;rounded=0;" vertex="1" parent="1">
          <mxGeometry x="945" y="380" width="140" height="40" as="geometry" />
        </mxCell>
        <mxCell id="OCgTym71qdyOVRXxtuMu-35" style="edgeStyle=orthogonalEdgeStyle;rounded=0;orthogonalLoop=1;jettySize=auto;html=1;exitX=0.5;exitY=0;exitDx=0;exitDy=0;dashed=1;" edge="1" parent="1" source="OCgTym71qdyOVRXxtuMu-36" target="OCgTym71qdyOVRXxtuMu-37">
          <mxGeometry relative="1" as="geometry">
            <Array as="points">
              <mxPoint x="1003" y="440" />
              <mxPoint x="1375" y="440" />
            </Array>
          </mxGeometry>
        </mxCell>
        <mxCell id="OCgTym71qdyOVRXxtuMu-36" value="Web Server&amp;nbsp;" style="text;html=1;align=center;verticalAlign=middle;whiteSpace=wrap;rounded=0;" vertex="1" parent="1">
          <mxGeometry x="933.25" y="272" width="140" height="40" as="geometry" />
        </mxCell>
        <mxCell id="OCgTym71qdyOVRXxtuMu-37" value="" style="outlineConnect=0;dashed=0;verticalLabelPosition=bottom;verticalAlign=top;align=center;html=1;shape=mxgraph.aws3.ec2;fillColor=#F58534;gradientColor=none;" vertex="1" parent="1">
          <mxGeometry x="1336.75" y="170" width="76.5" height="93" as="geometry" />
        </mxCell>
        <mxCell id="OCgTym71qdyOVRXxtuMu-38" value="DB Server" style="text;html=1;align=center;verticalAlign=middle;whiteSpace=wrap;rounded=0;" vertex="1" parent="1">
          <mxGeometry x="1305" y="263" width="140" height="40" as="geometry" />
        </mxCell>
        <mxCell id="OCgTym71qdyOVRXxtuMu-39" style="edgeStyle=none;rounded=0;orthogonalLoop=1;jettySize=auto;html=1;exitX=0.5;exitY=1;exitDx=0;exitDy=0;exitPerimeter=0;" edge="1" parent="1" source="OCgTym71qdyOVRXxtuMu-40" target="OCgTym71qdyOVRXxtuMu-41">
          <mxGeometry relative="1" as="geometry" />
        </mxCell>
        <mxCell id="OCgTym71qdyOVRXxtuMu-40" value="" style="outlineConnect=0;dashed=0;verticalLabelPosition=bottom;verticalAlign=top;align=center;html=1;shape=mxgraph.aws3.internet_gateway;fillColor=#F58534;gradientColor=none;" vertex="1" parent="1">
          <mxGeometry x="975.5" y="-150" width="69" height="72" as="geometry" />
        </mxCell>
        <mxCell id="OCgTym71qdyOVRXxtuMu-41" value="" style="outlineConnect=0;dashed=0;verticalLabelPosition=bottom;verticalAlign=top;align=center;html=1;shape=mxgraph.aws3.route_table;fillColor=#F58536;gradientColor=none;" vertex="1" parent="1">
          <mxGeometry x="972.5" y="43" width="75" height="69" as="geometry" />
        </mxCell>
        <mxCell id="OCgTym71qdyOVRXxtuMu-42" value="" style="outlineConnect=0;dashed=0;verticalLabelPosition=bottom;verticalAlign=top;align=center;html=1;shape=mxgraph.aws3.route_table;fillColor=#F58536;gradientColor=none;" vertex="1" parent="1">
          <mxGeometry x="1338.25" y="43" width="75" height="69" as="geometry" />
        </mxCell>
        <mxCell id="OCgTym71qdyOVRXxtuMu-44" value="" style="sketch=0;outlineConnect=0;fontColor=#232F3E;gradientColor=none;fillColor=#8C4FFF;strokeColor=none;dashed=0;verticalLabelPosition=bottom;verticalAlign=top;align=center;html=1;fontSize=12;fontStyle=0;aspect=fixed;pointerEvents=1;shape=mxgraph.aws4.peering;" vertex="1" parent="1">
          <mxGeometry x="897.5" y="640" width="78" height="78" as="geometry" />
        </mxCell>
      </root>
    </mxGraphModel>
  </diagram>
</mxfile>
